<svg xmlns="http://www.w3.org/2000/svg" viewBox="0 0 24 24">
  <circle cx="12" cy="12" r="12" fill="#0f172a"/>
  <path d="M12 2 C18 2 22 6 22 12 C22 18 18 21 12 22 C6 21 2 18 2 12 C2 6 6 2 12 2Z" fill="#14b8a6" fill-opacity="0.12"/>
  <path d="M12 4 L12 18" stroke="#14b8a6" stroke-width="1.2" stroke-linecap="round"/>
  <path d="M12 6 L7 5.5 M12 9 L4 9 M12 12 L3 12 M12 15 L4 15 M12 18 L7 18" stroke="#14b8a6" stroke-width="0.6" opacity="0.4" stroke-linecap="round"/>
  <path d="M12 6 L17 5.5 M12 9 L20 9 M12 12 L21 12 M12 15 L20 15 M12 18 L17 18" stroke="#14b8a6" stroke-width="0.6" opacity="0.4" stroke-linecap="round"/>
  <path d="M11.5 18.5 L12 20 L12.5 18.5" stroke="#14b8a6" stroke-width="0.8" opacity="0.6" stroke-linecap="round" stroke-linejoin="round" fill="none"/>
</svg>
